<?xml version="1.0" encoding="utf-8"?>
<!-- Generator: Adobe Illustrator 15.0.0, SVG Export Plug-In  -->
<!DOCTYPE svg PUBLIC "-//W3C//DTD SVG 1.1//EN" "http://www.w3.org/Graphics/SVG/1.1/DTD/svg11.dtd" [
	<!ENTITY ns_flows "http://ns.adobe.com/Flows/1.0/">
]>
<svg version="1.1"
	 xmlns="http://www.w3.org/2000/svg" xmlns:xlink="http://www.w3.org/1999/xlink" xmlns:a="http://ns.adobe.com/AdobeSVGViewerExtensions/3.0/"
	 x="0px" y="0px" width="200px" height="200px" viewBox="-2.185 -1.78 200 200"
	 overflow="visible" enable-background="new -2.185 -1.78 200 200" xml:space="preserve">
<defs>
</defs>
<path opacity="0.75" fill="#F68C3F" d="M107.036,9.117c0,5.064-4.052,9.115-9.115,9.115c-5.066,0-9.118-4.051-9.118-9.115
	C88.803,4.052,92.854,0,97.921,0C102.984,0,107.036,4.052,107.036,9.117L107.036,9.117z M107.036,9.117"/>
<path opacity="0.75" fill="#F68C3F" d="M107.036,186.723c0,5.063-4.052,9.115-9.115,9.115c-5.066,0-9.118-4.052-9.118-9.115
	c0-5.065,4.052-9.117,9.118-9.117C102.984,177.606,107.036,181.658,107.036,186.723L107.036,186.723z M107.036,186.723"/>
<path opacity="0.75" fill="#F68C3F" d="M41.531,28.699c3.716,3.716,3.716,9.455,0,12.832c-3.713,3.715-9.453,3.715-12.831,0
	c-3.713-3.713-3.713-9.454,0-12.832C32.078,25.324,38.155,25.324,41.531,28.699L41.531,28.699z M41.531,28.699"/>
<path opacity="0.75" fill="#F68C3F" d="M167.139,154.307c3.714,3.715,3.714,9.453,0,12.832c-3.713,3.714-9.455,3.714-12.83,0
	c-3.714-3.714-3.714-9.455,0-12.832C157.684,150.593,163.426,150.593,167.139,154.307L167.139,154.307z M167.139,154.307"/>
<path opacity="0.75" fill="#F68C3F" d="M9.117,88.803c5.064,0,9.116,4.052,9.116,9.118c0,5.063-4.052,9.115-9.116,9.115
	C4.052,107.036,0,102.984,0,97.92C0,92.854,4.052,88.803,9.117,88.803L9.117,88.803z M9.117,88.803"/>
<path opacity="0.75" fill="#F68C3F" d="M186.724,88.803c5.063,0,9.115,4.052,9.115,9.118c0,5.063-4.052,9.115-9.115,9.115
	c-5.065,0-9.117-4.052-9.117-9.115C177.606,92.854,181.658,88.803,186.724,88.803L186.724,88.803z M186.724,88.803"/>
<path opacity="0.75" fill="#F68C3F" d="M28.7,154.307c3.716-3.714,9.456-3.714,12.831,0c3.716,3.715,3.716,9.453,0,12.832
	c-3.713,3.714-9.453,3.714-12.831,0C24.986,163.76,24.986,158.022,28.7,154.307L28.7,154.307z M28.7,154.307"/>
<path opacity="0.75" fill="#F68C3F" d="M154.309,28.699c3.713-3.713,9.453-3.713,12.83,0c3.714,3.716,3.714,9.455,0,12.832
	c-3.713,3.715-9.455,3.715-12.83,0C150.595,38.154,150.595,32.415,154.309,28.699L154.309,28.699z M154.309,28.699"/>
<path fill="#DBD9C8" d="M184.106,97.902c0,47.61-38.595,86.205-86.204,86.205c-47.612,0-86.207-38.595-86.207-86.205
	c0-47.612,38.594-86.207,86.207-86.207C145.512,11.695,184.106,50.291,184.106,97.902L184.106,97.902z M184.106,97.902"/>
<path fill="#C1BEAE" d="M156.696,100.649c0,44.323-33.505,80.621-76.433,85.506c3.143,0.35,6.631,0.699,9.774,0.699
	c47.813,0,86.553-38.74,86.553-86.205c0-47.467-38.739-86.207-86.206-86.207c-3.489,0-6.631,0.35-9.771,0.699
	C123.191,20.027,156.696,56.324,156.696,100.649L156.696,100.649z M156.696,100.649"/>
<path fill="#A07B6A" d="M97.902,192.132c-52.005,0-94.233-42.228-94.233-94.23c0-52.005,42.229-94.233,94.233-94.233
	c52.002,0,94.23,42.228,94.23,94.233C192.133,149.905,149.904,192.132,97.902,192.132L97.902,192.132z M97.902,19.721
	c-42.93,0-78.181,35.251-78.181,78.181c0,42.927,34.901,78.177,78.181,78.177c43.276,0,78.178-34.901,78.178-78.177
	C176.08,54.623,140.83,19.721,97.902,19.721L97.902,19.721z M97.902,19.721"/>
<path opacity="0.39" fill="#EF682D" d="M19.693,97.946c0-44.323,33.505-80.621,76.434-85.506c-3.143-0.349-6.631-0.698-9.774-0.698
	c-47.814,0-82.636,38.739-82.636,86.204c0,47.467,34.822,86.207,82.289,86.207c3.489,0,6.631-0.349,9.771-0.698
	C53.198,178.568,19.693,142.272,19.693,97.946L19.693,97.946z M17.054,97.929"/>
<path opacity="0.39" fill="#EF682D" d="M176.128,97.931c0,44.322-33.505,80.621-76.434,85.506c3.144,0.349,6.632,0.698,9.774,0.698
	c47.813,0,82.635-38.739,82.635-86.204c0-47.467-34.821-86.207-82.289-86.207c-3.488,0-6.631,0.35-9.771,0.698
	C142.623,17.309,176.128,53.605,176.128,97.931L176.128,97.931z M178.768,97.948"/>
</svg>
